<svg xmlns="http://www.w3.org/2000/svg" width="1800" height="2025" viewBox="0 0 1800 2025" role="img" aria-labelledby="diagram-title diagram-description">
<title id="diagram-title">AgentFlow LangGraph workflow</title>
<desc id="diagram-description">The exact current graph topology: ticket validation, planning with approval, implementation and patch retry, Docker verification with repair loop, review with review-repair loop, publication approval, GitHub draft pull request, Jira update and cleanup. Invalid and retry-limit routes terminate at LangGraph END.</desc>
<defs><marker id="arrow-flow" viewBox="0 0 10 10" refX="9" refY="5" markerWidth="7" markerHeight="7" orient="auto-start-reverse"><path d="M 1 1 L 9 5 L 1 9" fill="none" stroke="#157e88" stroke-width="1.7" stroke-linecap="round" stroke-linejoin="round"/></marker><marker id="arrow-planned" viewBox="0 0 10 10" refX="9" refY="5" markerWidth="7" markerHeight="7" orient="auto-start-reverse"><path d="M 1 1 L 9 5 L 1 9" fill="none" stroke="#aa690e" stroke-width="1.7" stroke-linecap="round" stroke-linejoin="round"/></marker><marker id="arrow-logs" viewBox="0 0 10 10" refX="9" refY="5" markerWidth="7" markerHeight="7" orient="auto-start-reverse"><path d="M 1 1 L 9 5 L 1 9" fill="none" stroke="#9160aa" stroke-width="1.7" stroke-linecap="round" stroke-linejoin="round"/></marker><marker id="arrow-neon" viewBox="0 0 10 10" refX="9" refY="5" markerWidth="7" markerHeight="7" orient="auto-start-reverse"><path d="M 1 1 L 9 5 L 1 9" fill="none" stroke="#60e6c1" stroke-width="1.7" stroke-linecap="round" stroke-linejoin="round"/></marker><marker id="arrow-dim" viewBox="0 0 10 10" refX="9" refY="5" markerWidth="7" markerHeight="7" orient="auto-start-reverse"><path d="M 1 1 L 9 5 L 1 9" fill="none" stroke="#617184" stroke-width="1.7" stroke-linecap="round" stroke-linejoin="round"/></marker></defs>
<style>
  text { font-family: Inter, Arial, Helvetica, sans-serif; fill: #152b3b; }
  .title { font-size: 42px; font-weight: 750; letter-spacing: -1.2px; }
  .subtitle { font-size: 22px; fill: #526579; }
  .section { font-size: 17px; font-weight: 750; letter-spacing: 2px; fill: #157e88; paint-order: stroke; stroke: white; stroke-width: 10px; }
  .name { font-size: 25px; font-weight: 700; letter-spacing: -.4px; }
  .body { font-size: 20px; fill: #526579; }
  .small { font-size: 17px; fill: #526579; }
  .label { font-size: 18px; fill: #157e88; }
  .planned-text { font-size: 17px; fill: #aa690e; font-weight: 700; }
  .line { fill: none; stroke-width: 2; stroke-linecap: round; stroke-linejoin: round; }
  .flow { stroke: #157e88; }
  .planned { stroke: #aa690e; stroke-dasharray: 6 7; }
  .logs { stroke: #9160aa; }
  .rule { stroke: #dce4eb; stroke-width: 1; }
  .lifeline { stroke: #dce4eb; stroke-width: 1.4; stroke-dasharray: 4 7; }
  .message { font-size: 18px; paint-order: stroke; stroke: white; stroke-width: 8px; stroke-linejoin: round; }
  .return { stroke-dasharray: 4 5; }
  .note { font-size: 19px; fill: #526579; paint-order: stroke; stroke: white; stroke-width: 9px; }
  .wf-node { stroke-width: 2; rx: 16; }
  .wf-deterministic { fill: #f3f8fb; stroke: #4d91b3; }
  .wf-agent { fill: #f8f3fc; stroke: #8e63ad; }
  .wf-approval { fill: #fff8e8; stroke: #c37b12; }
  .wf-action { fill: #eef9f4; stroke: #39906d; }
  .wf-terminal { fill: #fff3f2; stroke: #c9544d; }
  .wf-title { font-size: 20px; font-weight: 720; }
  .wf-subtitle { font-size: 15px; fill: #526579; }
  .wf-route { font-size: 15px; font-weight: 700; paint-order: stroke; stroke: white; stroke-width: 7px; }
  .success-text { fill: #28795d; }
  .retry-text { fill: #7f52a0; }
  .failure-text { fill: #b2443f; }
  .retry { stroke: #8e63ad; stroke-dasharray: 7 6; }
  .failure { stroke: #c9544d; stroke-dasharray: 5 5; }
  .data-card { fill: white; stroke: #cfdbe4; stroke-width: 1.5; rx: 18; }
  .data-card-operational { fill: #f3f8fb; stroke: #4d91b3; }
  .data-card-checkpoint { fill: #f8f3fc; stroke: #8e63ad; }
  .data-card-meta { fill: #fff8e8; stroke: #c37b12; }
  .data-title { font-size: 22px; font-weight: 750; }
  .data-field { font-size: 16px; fill: #526579; }
  .data-key { font-size: 15px; font-weight: 750; fill: #157e88; }
  .correlation { stroke: #aa690e; stroke-width: 2; stroke-dasharray: 7 7; fill: none; }
  .dark-title { font-family: "Segoe Print", "Comic Sans MS", cursive; font-size: 35px; font-weight: 750; letter-spacing: 1px; fill: #ff6978; }
  .dark-subtitle { font-size: 21px; fill: #9eb2c5; }
  .dark-section { font-family: "Segoe Print", "Comic Sans MS", cursive; font-size: 17px; font-weight: 750; letter-spacing: 1.6px; fill: #60e6c1; }
  .dark-name { font-size: 23px; font-weight: 750; fill: #f2f6fb; }
  .dark-body { font-size: 17px; fill: #b2c1d0; }
  .dark-small { font-size: 15px; fill: #71869a; }
  .dark-label { font-family: "Segoe Print", "Comic Sans MS", cursive; font-size: 16px; fill: #60e6c1; paint-order: stroke; stroke: #071019; stroke-width: 8px; }
  .dark-planned { font-family: "Segoe Print", "Comic Sans MS", cursive; font-size: 16px; fill: #f4b84a; font-weight: 700; paint-order: stroke; stroke: #071019; stroke-width: 8px; }
  .dark-rule { stroke: #203344; stroke-width: 1; stroke-dasharray: 3 8; }
  .icon-disc { fill: #f4f7fb; stroke: #294354; stroke-width: 2; }
  .neon { stroke: #60e6c1; stroke-width: 2.2; }
  .dim { stroke: #617184; stroke-width: 1.8; }
</style>
<rect width="1800" height="2025" fill="white"/>
<svg x="59" y="54" width="68" height="68" viewBox="0 0 24 24" preserveAspectRatio="xMidYMid meet" aria-hidden="true"><title>LangGraph</title><path fill="#1C3C3C" d="M6.099 5.88H17.9C21.264 5.88 24 8.625 24 12s-2.736 6.12-6.099 6.12H6.1C2.736 18.12 0 15.375 0 12s2.736-6.12 6.099-6.12Zm5.419 9.487c.148.156.367.148.561.108h.002c.09-.073-.038-.166-.16-.254-.074-.054-.145-.105-.166-.15.068-.083-.132-.27-.289-.417a1.539 1.539 0 0 1-.15-.151c-.11-.12-.155-.273-.2-.427a1.575 1.575 0 0 0-.11-.297c-.304-.708-.653-1.41-1.143-2.01-.315-.398-.674-.755-1.033-1.112-.232-.23-.463-.46-.683-.701-.226-.234-.362-.521-.499-.81-.114-.24-.228-.482-.396-.693-.507-.75-2.107-.955-2.342.105 0 .033-.01.054-.039.075-.13.095-.245.203-.342.334-.238.332-.274.895.022 1.193l.001-.02c.01-.15.02-.29.139-.399.228.198.576.268.841.12.32.46.422 1.015.525 1.572.085.464.17.93.382 1.341l.014.022c.124.208.25.419.41.6.059.09.178.187.297.284.157.128.314.256.329.366v.146c-.001.29-.002.59.184.83.103.208-.15.418-.352.392a.989.989 0 0 1-.354-.043c-.165-.04-.329-.08-.462-.003-.038.04-.091.042-.145.043-.064.002-.129.004-.167.07a.29.29 0 0 1-.045.066c-.042.051-.087.107-.033.149l.015-.011c.082-.063.16-.123.27-.085-.014.082.039.103.092.125l.027.012a.357.357 0 0 1-.008.057c-.009.046-.017.09.018.13a.605.605 0 0 0 .046-.056c.037-.046.073-.094.139-.11.144.192.289.112.471.012.206-.114.459-.253.81-.056-.135-.007-.255.01-.345.121-.023.025-.042.054-.002.087.207-.135.294-.086.375-.04.06.032.115.063.212.024l.07-.037c.155-.084.314-.17.499-.14-.139.04-.188.127-.242.223-.026.047-.054.097-.094.143-.021.021-.03.046-.007.082.29-.024.4-.098.548-.197.07-.047.15-.1.261-.157.124-.076.248-.028.368.02.13.05.255.1.371-.013.037-.035.083-.035.129-.036.016 0 .033 0 .05-.002-.037-.194-.24-.191-.448-.189-.24.003-.483.005-.475-.295.222-.152.224-.415.226-.665 0-.06 0-.119.005-.176.163.092.336.163.508.234.162.066.323.133.474.215.157.254.404.59.732.568.008-.026.016-.048.026-.074.019.003.039.008.059.014.086.021.178.045.223-.057zm6.429-2.886a1.014 1.014 0 0 0 1.729-.715 1.01 1.01 0 0 0-1.013-1.01c-.126 0-.25.023-.364.068l-.58-.848-.405.278.583.851a1.009 1.009 0 0 0 .05 1.376zm-1.818-2.744a1.014 1.014 0 0 0 1.42-.615 1.008 1.008 0 0 0-.845-1.293 1.015 1.015 0 0 0-1.095.712 1.008 1.008 0 0 0 .52 1.196zm0 5.867a1.015 1.015 0 0 0 1.42-.615 1.008 1.008 0 0 0-.845-1.293 1.015 1.015 0 0 0-1.095.712 1.008 1.008 0 0 0 .52 1.196zm.932-3.586v-.503h-1.55a1.003 1.003 0 0 0-.218-.412l.583-.864-.424-.28-.583.863a1.014 1.014 0 0 0-.333-.06c-.268 0-.525.106-.714.294a1.002 1.002 0 0 0 1.047 1.655l.583.864.42-.281-.579-.864c.104-.119.178-.26.217-.412z"/></svg><text x="145" y="78" class="title" text-anchor="start">LangGraph Workflow</text><text x="56" y="132" class="subtitle" text-anchor="start">Agents propose. Deterministic gates decide. Humans approve before implementation and publication.</text><path d="M56 168 H1744" class="rule"/><text x="56" y="198" class="section" text-anchor="start">01 / TICKET INTAKE</text><path d="M56 435 H1744" class="rule"/><text x="56" y="465" class="section" text-anchor="start">02 / PLAN &amp; HUMAN APPROVAL</text><path d="M56 725 H1744" class="rule"/><text x="56" y="755" class="section" text-anchor="start">03 / IMPLEMENT &amp; VERIFY</text><path d="M56 995 H1744" class="rule"/><text x="56" y="1025" class="section" text-anchor="start">04 / VERIFICATION REPAIR</text><path d="M56 1275 H1744" class="rule"/><text x="56" y="1305" class="section" text-anchor="start">05 / REVIEW &amp; PUBLICATION GATE</text><path d="M56 1710 H1744" class="rule"/><text x="56" y="1740" class="section" text-anchor="start">06 / PUBLISH</text><g id="Start"><rect x="24.5" y="219" width="115" height="82" class="wf-node wf-action"/><circle cx="46.5" cy="260" r="6" fill="#39906d"/><text x="63.5" y="255" class="wf-title" text-anchor="start">START</text><text x="63.5" y="281" class="wf-subtitle" text-anchor="start">graph entry</text></g><g id="Fetch"><rect x="175" y="219" width="190" height="82" class="wf-node wf-deterministic"/><circle cx="197" cy="260" r="6" fill="#4d91b3"/><text x="214" y="255" class="wf-title" text-anchor="start">Fetch Jira ticket</text><text x="214" y="281" class="wf-subtitle" text-anchor="start">deterministic node</text></g><g id="TicketValidation"><rect x="422.5" y="219" width="205" height="82" class="wf-node wf-deterministic"/><circle cx="444.5" cy="260" r="6" fill="#4d91b3"/><text x="461.5" y="255" class="wf-title" text-anchor="start">Validate ticket</text><text x="461.5" y="281" class="wf-subtitle" text-anchor="start">requirements gate</text></g><g id="Workspace"><rect x="687.5" y="219" width="215" height="82" class="wf-node wf-action"/><circle cx="709.5" cy="260" r="6" fill="#39906d"/><text x="726.5" y="255" class="wf-title" text-anchor="start">Prepare workspace</text><text x="726.5" y="281" class="wf-subtitle" text-anchor="start">clone repository</text></g><g id="Context"><rect x="962.5" y="219" width="235" height="82" class="wf-node wf-deterministic"/><circle cx="984.5" cy="260" r="6" fill="#4d91b3"/><text x="1001.5" y="255" class="wf-title" text-anchor="start">Repository context</text><text x="1001.5" y="281" class="wf-subtitle" text-anchor="start">bounded code context</text></g><g id="Planning"><rect x="1335" y="494" width="210" height="82" class="wf-node wf-agent"/><circle cx="1357" cy="535" r="6" fill="#8e63ad"/><text x="1374" y="530" class="wf-title" text-anchor="start">Planning Agent</text><text x="1374" y="556" class="wf-subtitle" text-anchor="start">structured plan</text></g><g id="PlanValidation"><rect x="1020" y="494" width="220" height="82" class="wf-node wf-deterministic"/><circle cx="1042" cy="535" r="6" fill="#4d91b3"/><text x="1059" y="530" class="wf-title" text-anchor="start">Validate plan</text><text x="1059" y="556" class="wf-subtitle" text-anchor="start">scope + path checks</text></g><g id="PlanApproval"><rect x="700" y="494" width="230" height="82" class="wf-node wf-approval"/><circle cx="722" cy="535" r="6" fill="#c37b12"/><text x="739" y="530" class="wf-title" text-anchor="start">Plan approval</text><text x="739" y="556" class="wf-subtitle" text-anchor="start">LangGraph interrupt</text></g><g id="Branch"><rect x="397.5" y="494" width="205" height="82" class="wf-node wf-action"/><circle cx="419.5" cy="535" r="6" fill="#39906d"/><text x="436.5" y="530" class="wf-title" text-anchor="start">Create branch</text><text x="436.5" y="556" class="wf-subtitle" text-anchor="start">isolated Git branch</text></g><g id="Implementation"><rect x="145" y="784" width="230" height="82" class="wf-node wf-agent"/><circle cx="167" cy="825" r="6" fill="#8e63ad"/><text x="184" y="820" class="wf-title" text-anchor="start">Implementation Agent</text><text x="184" y="846" class="wf-subtitle" text-anchor="start">unified diff proposal</text></g><g id="PatchValidation"><rect x="475" y="784" width="230" height="82" class="wf-node wf-deterministic"/><circle cx="497" cy="825" r="6" fill="#4d91b3"/><text x="514" y="820" class="wf-title" text-anchor="start">Validate patch</text><text x="514" y="846" class="wf-subtitle" text-anchor="start">paths + format + limits</text></g><g id="PatchApply"><rect x="815" y="784" width="210" height="82" class="wf-node wf-action"/><circle cx="837" cy="825" r="6" fill="#39906d"/><text x="854" y="820" class="wf-title" text-anchor="start">Apply patch</text><text x="854" y="846" class="wf-subtitle" text-anchor="start">controlled workspace write</text></g><g id="Verify"><rect x="1127.5" y="784" width="225" height="82" class="wf-node wf-deterministic"/><circle cx="1149.5" cy="825" r="6" fill="#4d91b3"/><text x="1166.5" y="820" class="wf-title" text-anchor="start">Docker verification</text><text x="1166.5" y="846" class="wf-subtitle" text-anchor="start">build + tests + limits</text></g><g id="RepairContext"><rect x="1312.5" y="1054" width="245" height="82" class="wf-node wf-deterministic"/><circle cx="1334.5" cy="1095" r="6" fill="#4d91b3"/><text x="1351.5" y="1090" class="wf-title" text-anchor="start">Refresh repair context</text><text x="1351.5" y="1116" class="wf-subtitle" text-anchor="start">read current workspace</text></g><g id="RepairAgent"><rect x="992.5" y="1054" width="215" height="82" class="wf-node wf-agent"/><circle cx="1014.5" cy="1095" r="6" fill="#8e63ad"/><text x="1031.5" y="1090" class="wf-title" text-anchor="start">Repair Agent</text><text x="1031.5" y="1116" class="wf-subtitle" text-anchor="start">verification feedback</text></g><g id="RepairValidation"><rect x="662.5" y="1054" width="235" height="82" class="wf-node wf-deterministic"/><circle cx="684.5" cy="1095" r="6" fill="#4d91b3"/><text x="701.5" y="1090" class="wf-title" text-anchor="start">Validate repair patch</text><text x="701.5" y="1116" class="wf-subtitle" text-anchor="start">deterministic gate</text></g><g id="RepairApply"><rect x="350" y="1054" width="210" height="82" class="wf-node wf-action"/><circle cx="372" cy="1095" r="6" fill="#39906d"/><text x="389" y="1090" class="wf-title" text-anchor="start">Apply repair</text><text x="389" y="1116" class="wf-subtitle" text-anchor="start">controlled write</text></g><g id="ReviewContext"><rect x="1312.5" y="1334" width="245" height="82" class="wf-node wf-deterministic"/><circle cx="1334.5" cy="1375" r="6" fill="#4d91b3"/><text x="1351.5" y="1370" class="wf-title" text-anchor="start">Refresh review context</text><text x="1351.5" y="1396" class="wf-subtitle" text-anchor="start">read verified workspace</text></g><g id="ReviewAgent"><rect x="1005" y="1334" width="210" height="82" class="wf-node wf-agent"/><circle cx="1027" cy="1375" r="6" fill="#8e63ad"/><text x="1044" y="1370" class="wf-title" text-anchor="start">Review Agent</text><text x="1044" y="1396" class="wf-subtitle" text-anchor="start">risk + AC coverage</text></g><g id="ReviewValidation"><rect x="682.5" y="1334" width="225" height="82" class="wf-node wf-deterministic"/><circle cx="704.5" cy="1375" r="6" fill="#4d91b3"/><text x="721.5" y="1370" class="wf-title" text-anchor="start">Validate review</text><text x="721.5" y="1396" class="wf-subtitle" text-anchor="start">decision gate</text></g><g id="PRApproval"><rect x="335" y="1334" width="240" height="82" class="wf-node wf-approval"/><circle cx="357" cy="1375" r="6" fill="#c37b12"/><text x="374" y="1370" class="wf-title" text-anchor="start">Publication approval</text><text x="374" y="1396" class="wf-subtitle" text-anchor="start">LangGraph interrupt</text></g><g id="ReviewRepairContext"><rect x="705" y="1544" width="260" height="82" class="wf-node wf-deterministic"/><circle cx="727" cy="1585" r="6" fill="#4d91b3"/><text x="744" y="1580" class="wf-title" text-anchor="start">Refresh review-repair</text><text x="744" y="1606" class="wf-subtitle" text-anchor="start">targeted current context</text></g><g id="ReviewRepairAgent"><rect x="1047.5" y="1544" width="225" height="82" class="wf-node wf-agent"/><circle cx="1069.5" cy="1585" r="6" fill="#8e63ad"/><text x="1086.5" y="1580" class="wf-title" text-anchor="start">Review Repair Agent</text><text x="1086.5" y="1606" class="wf-subtitle" text-anchor="start">review-driven patch</text></g><g id="Commit"><rect x="162.5" y="1769" width="165" height="82" class="wf-node wf-action"/><circle cx="184.5" cy="1810" r="6" fill="#39906d"/><text x="201.5" y="1805" class="wf-title" text-anchor="start">Commit</text><text x="201.5" y="1831" class="wf-subtitle" text-anchor="start">Git</text></g><g id="Push"><rect x="392.5" y="1769" width="165" height="82" class="wf-node wf-action"/><circle cx="414.5" cy="1810" r="6" fill="#39906d"/><text x="431.5" y="1805" class="wf-title" text-anchor="start">Push branch</text><text x="431.5" y="1831" class="wf-subtitle" text-anchor="start">GitHub remote</text></g><g id="PullRequest"><rect x="625" y="1769" width="180" height="82" class="wf-node wf-action"/><circle cx="647" cy="1810" r="6" fill="#39906d"/><text x="664" y="1805" class="wf-title" text-anchor="start">Draft PR</text><text x="664" y="1831" class="wf-subtitle" text-anchor="start">GitHub API</text></g><g id="JiraUpdate"><rect x="875" y="1769" width="180" height="82" class="wf-node wf-action"/><circle cx="897" cy="1810" r="6" fill="#39906d"/><text x="914" y="1805" class="wf-title" text-anchor="start">Update Jira</text><text x="914" y="1831" class="wf-subtitle" text-anchor="start">post PR link</text></g><g id="Cleanup"><rect x="1120" y="1769" width="190" height="82" class="wf-node wf-action"/><circle cx="1142" cy="1810" r="6" fill="#39906d"/><text x="1159" y="1805" class="wf-title" text-anchor="start">Cleanup</text><text x="1159" y="1831" class="wf-subtitle" text-anchor="start">remove workspace</text></g><g id="EndSuccess"><rect x="1400" y="1769" width="160" height="82" class="wf-node wf-action"/><circle cx="1422" cy="1810" r="6" fill="#39906d"/><text x="1439" y="1805" class="wf-title" text-anchor="start">END</text><text x="1439" y="1831" class="wf-subtitle" text-anchor="start">completed path</text></g><path d="M 140 260 H 175" class="line flow" marker-end="url(#arrow-flow)"/><path d="M 365 260 H 422" class="line flow" marker-end="url(#arrow-flow)"/><path d="M 628 260 H 687" class="line flow" marker-end="url(#arrow-flow)"/><path d="M 903 260 H 962" class="line flow" marker-end="url(#arrow-flow)"/><path d="M 1198 260 H 1440 V 494" class="line flow" marker-end="url(#arrow-flow)"/><path d="M 1335 535 H 1240" class="line flow" marker-end="url(#arrow-flow)"/><path d="M 1020 535 H 930" class="line flow" marker-end="url(#arrow-flow)"/><text x="975" y="520" class="wf-route success-text" text-anchor="middle">VALID</text><path d="M 700 535 H 603" class="line flow" marker-end="url(#arrow-flow)"/><text x="650" y="520" class="wf-route success-text" text-anchor="middle">APPROVE</text><path d="M 500 576 V 660 H 260 V 784" class="line flow" marker-end="url(#arrow-flow)"/><path d="M 375 825 H 475" class="line flow" marker-end="url(#arrow-flow)"/><path d="M 705 825 H 815" class="line flow" marker-end="url(#arrow-flow)"/><text x="760" y="810" class="wf-route success-text" text-anchor="middle">VALID</text><path d="M 1025 825 H 1127" class="line flow" marker-end="url(#arrow-flow)"/><path d="M 1240 866 V 1260 H 1435 V 1334" class="line flow" marker-end="url(#arrow-flow)"/><text x="1270" y="1238" class="wf-route success-text" text-anchor="start">PASSED</text><path d="M 1312 1375 H 1215" class="line flow" marker-end="url(#arrow-flow)"/><path d="M 1005 1375 H 908" class="line flow" marker-end="url(#arrow-flow)"/><path d="M 682 1375 H 575" class="line flow" marker-end="url(#arrow-flow)"/><text x="628" y="1360" class="wf-route success-text" text-anchor="middle">APPROVED</text><path d="M 335 1375 H 205 V 1769 H 245" class="line flow" marker-end="url(#arrow-flow)"/><text x="190" y="1660" class="wf-route success-text" text-anchor="end">APPROVE</text><path d="M 328 1810 H 392" class="line flow" marker-end="url(#arrow-flow)"/><path d="M 558 1810 H 625" class="line flow" marker-end="url(#arrow-flow)"/><path d="M 805 1810 H 875" class="line flow" marker-end="url(#arrow-flow)"/><path d="M 1055 1810 H 1120" class="line flow" marker-end="url(#arrow-flow)"/><path d="M 1310 1810 H 1400" class="line flow" marker-end="url(#arrow-flow)"/><path d="M 815 494 V 430 H 1440 V 494" class="line retry" marker-end="url(#arrow-retry)"/><text x="1125" y="417" class="wf-route retry-text" text-anchor="middle">REQUEST CHANGES</text><g id="EndTicket"><rect x="605" y="344" width="210" height="82" class="wf-node wf-terminal"/><circle cx="627" cy="385" r="6" fill="#c9544d"/><text x="644" y="380" class="wf-title" text-anchor="start">END</text><text x="644" y="406" class="wf-subtitle" text-anchor="start">clarification / rejected</text></g><path d="M 525 301 V 385 H 605" class="line failure" marker-end="url(#arrow-failure)"/><text x="555" y="370" class="wf-route failure-text" text-anchor="start">NOT READY</text><g id="EndPlan"><rect x="937.5" y="624" width="185" height="82" class="wf-node wf-terminal"/><circle cx="959.5" cy="665" r="6" fill="#c9544d"/><text x="976.5" y="660" class="wf-title" text-anchor="start">END</text><text x="976.5" y="686" class="wf-subtitle" text-anchor="start">invalid / rejected</text></g><path d="M 1130 576 V 624" class="line failure" marker-end="url(#arrow-failure)"/><text x="1150" y="613" class="wf-route failure-text" text-anchor="start">INVALID</text><path d="M 815 576 V 665 H 938" class="line failure" marker-end="url(#arrow-failure)"/><text x="860" y="650" class="wf-route failure-text" text-anchor="start">REJECT</text><path d="M 590 866 V 900 H 260 V 866" class="line retry" marker-end="url(#arrow-retry)"/><text x="425" y="893" class="wf-route retry-text" text-anchor="middle">RETRY · ATTEMPTS REMAIN</text><g id="EndPatch"><rect x="715" y="914" width="210" height="82" class="wf-node wf-terminal"/><circle cx="737" cy="955" r="6" fill="#c9544d"/><text x="754" y="950" class="wf-title" text-anchor="start">END</text><text x="754" y="976" class="wf-subtitle" text-anchor="start">patch retry limit</text></g><path d="M 650 866 V 955 H 715" class="line failure" marker-end="url(#arrow-failure)"/><text x="695" y="941" class="wf-route failure-text" text-anchor="end">LIMIT</text><path d="M 1240 866 V 1054 H 1312" class="line retry" marker-end="url(#arrow-retry)"/><text x="1265" y="1038" class="wf-route retry-text" text-anchor="start">FAILED · ATTEMPTS REMAIN</text><path d="M 1312 1095 H 1208" class="line flow" marker-end="url(#arrow-flow)"/><path d="M 992 1095 H 898" class="line flow" marker-end="url(#arrow-flow)"/><path d="M 662 1095 H 560" class="line flow" marker-end="url(#arrow-flow)"/><text x="612" y="1080" class="wf-route success-text" text-anchor="middle">VALID</text><path d="M 455 1054 V 1015 H 1240 V 866" class="line retry" marker-end="url(#arrow-retry)"/><text x="1090" y="1004" class="wf-route retry-text" text-anchor="middle">VERIFY AGAIN</text><g id="EndRepair"><rect x="665" y="1174" width="230" height="82" class="wf-node wf-terminal"/><circle cx="687" cy="1215" r="6" fill="#c9544d"/><text x="704" y="1210" class="wf-title" text-anchor="start">END</text><text x="704" y="1236" class="wf-subtitle" text-anchor="start">repair patch invalid</text></g><path d="M 780 1136 V 1174" class="line failure" marker-end="url(#arrow-failure)"/><text x="800" y="1160" class="wf-route failure-text" text-anchor="start">INVALID</text><g id="EndVerification"><rect x="1365" y="914" width="230" height="82" class="wf-node wf-terminal"/><circle cx="1387" cy="955" r="6" fill="#c9544d"/><text x="1404" y="950" class="wf-title" text-anchor="start">END</text><text x="1404" y="976" class="wf-subtitle" text-anchor="start">error / repair limit</text></g><path d="M 1353 825 H 1480 V 914" class="line failure" marker-end="url(#arrow-failure)"/><text x="1420" y="810" class="wf-route failure-text" text-anchor="middle">ERROR / LIMIT</text><path d="M 795 1416 V 1544" class="line retry" marker-end="url(#arrow-retry)"/><text x="815" y="1490" class="wf-route retry-text" text-anchor="start">CHANGES REQUESTED</text><path d="M 965 1585 H 1048" class="line flow" marker-end="url(#arrow-flow)"/><path d="M 1160 1544 V 1515 H 1585 V 1180 H 950 V 1095 H 898" class="line retry" marker-end="url(#arrow-retry)"/><text x="1268" y="1167" class="wf-route retry-text" text-anchor="middle">PATCH → SHARED REPAIR VALIDATION</text><g id="EndReview"><rect x="915" y="1649" width="250" height="82" class="wf-node wf-terminal"/><circle cx="937" cy="1690" r="6" fill="#c9544d"/><text x="954" y="1685" class="wf-title" text-anchor="start">END</text><text x="954" y="1711" class="wf-subtitle" text-anchor="start">invalid / rejected / limit</text></g><path d="M 795 1416 H 650 V 1690 H 915" class="line failure" marker-end="url(#arrow-failure)"/><text x="665" y="1676" class="wf-route failure-text" text-anchor="start">INVALID / REJECTED / LIMIT</text><g id="EndApproval"><rect x="327.5" y="1544" width="255" height="82" class="wf-node wf-terminal"/><circle cx="349.5" cy="1585" r="6" fill="#c9544d"/><text x="366.5" y="1580" class="wf-title" text-anchor="start">END</text><text x="366.5" y="1606" class="wf-subtitle" text-anchor="start">reject / request changes</text></g><path d="M 455 1416 V 1544" class="line failure" marker-end="url(#arrow-failure)"/><text x="475" y="1495" class="wf-route failure-text" text-anchor="start">REJECT / REQUEST CHANGES</text><text x="56" y="1935" class="name" text-anchor="start">Legend</text><rect x="170" y="1907" width="150" height="42" class="wf-node wf-agent"/><text x="245" y="1935" class="small" text-anchor="middle">LLM agent</text><rect x="340" y="1907" width="165" height="42" class="wf-node wf-deterministic"/><text x="422" y="1935" class="small" text-anchor="middle">validator / context</text><rect x="525" y="1907" width="150" height="42" class="wf-node wf-approval"/><text x="600" y="1935" class="small" text-anchor="middle">human interrupt</text><rect x="695" y="1907" width="145" height="42" class="wf-node wf-action"/><text x="767" y="1935" class="small" text-anchor="middle">side effect</text><path d="M 900 1928 H 1005" class="line retry" marker-end="url(#arrow-retry)"/><text x="952" y="1914" class="wf-route retry-text" text-anchor="middle">RETRY</text><path d="M 1080 1928 H 1185" class="line failure" marker-end="url(#arrow-failure)"/><text x="1132" y="1914" class="wf-route failure-text" text-anchor="middle">END PATH</text><text x="56" y="1990" class="small" text-anchor="start">All END chips represent LangGraph END. JiraPRWorkflowRunner determines COMPLETED, REJECTED or FAILED from the final state.</text>
</svg>
